<svg width="24" height="24" viewBox="0 0 24 24" fill="none" xmlns="http://www.w3.org/2000/svg">
<path d="M6.43242 14.086L5.73625 16.6849L3.19176 16.7387C2.43133 15.3283 2 13.7146 2 11.9997C2 10.3415 2.40328 8.77778 3.11813 7.40088H3.11867L5.38399 7.81619L6.37633 10.0679C6.16863 10.6734 6.05543 11.3234 6.05543 11.9997C6.05551 12.7338 6.18848 13.4371 6.43242 14.086Z" fill="#FBBB00"/>
<path d="M21.8253 10.1318C21.9402 10.7368 22.0001 11.3615 22.0001 11.9999C22.0001 12.7159 21.9248 13.4142 21.7814 14.0879C21.2946 16.3801 20.0226 18.3818 18.2605 19.7982L18.26 19.7977L15.4067 19.6521L15.0029 17.1312C16.1721 16.4455 17.0859 15.3725 17.5672 14.0879H12.2199V10.1318H17.6452H21.8253Z" fill="#518EF8"/>
<path d="M18.26 19.7979L18.2605 19.7985C16.5468 21.1759 14.3698 22.0001 12.0001 22.0001C8.19184 22.0001 4.88086 19.8715 3.19183 16.7391L6.4325 14.0864C7.27699 16.3402 9.45117 17.9446 12.0001 17.9446C13.0957 17.9446 14.1221 17.6485 15.0028 17.1314L18.26 19.7979Z" fill="#28B446"/>
<path d="M18.383 4.30217L15.1434 6.95434C14.2319 6.38458 13.1544 6.05544 12 6.05544C9.39344 6.05544 7.1786 7.73343 6.37641 10.0681L3.11871 7.40105H3.11816C4.78246 4.19229 8.1352 2 12 2C14.4264 2 16.6511 2.86429 18.383 4.30217Z" fill="#F14336"/>
</svg>
